<svg width="45" height="53" viewBox="0 0 45 53" fill="none" xmlns="http://www.w3.org/2000/svg">
<path d="M43.686 1.00006C43.843 1.00006 44 1.15734 44 1.31463V5.50884C44 5.69233 43.843 5.8234 43.686 5.8234H39.5003C39.3171 5.8234 39.1863 5.69233 39.1863 5.50884V5.2467C39.1863 5.08942 39.3171 4.93213 39.5003 4.93213H42.4826C41.5408 3.14959 39.6572 1.89133 37.512 1.89133C34.5035 1.89133 32.0705 4.27679 31.9136 7.21273C31.8874 7.39623 31.7566 7.50109 31.5996 7.50109H31.338C31.1549 7.50109 30.9979 7.37002 31.0241 7.18652C31.1811 3.75251 34.0326 1.00006 37.512 1.00006C39.8927 1.00006 41.9594 2.31075 43.1105 4.22436V1.31463C43.1105 1.15734 43.2413 1.00006 43.4244 1.00006H43.686ZM43.6599 7.50109C43.843 7.50109 44 7.65837 43.9738 7.84187C43.8168 11.2759 40.9653 14.0021 37.512 14.0021C35.1052 14.0021 33.0385 12.7176 31.9136 10.804V13.6875C31.9136 13.871 31.7566 14.0021 31.5996 14.0021H31.338C31.1549 14.0021 31.0241 13.871 31.0241 13.6875V9.49333C31.0241 9.33605 31.1549 9.17877 31.338 9.17877H35.5238C35.6808 9.17877 35.8377 9.33605 35.8377 9.49333V9.75547C35.8377 9.93897 35.6808 10.07 35.5238 10.07H32.5153C33.4571 11.905 35.3407 13.1108 37.512 13.1108C40.4944 13.1108 42.9274 10.7778 43.0843 7.81565C43.1105 7.63215 43.2413 7.50109 43.3983 7.50109H43.6599Z" fill="#52575C" stroke="#52575C"/>
<path fill-rule="evenodd" clip-rule="evenodd" d="M37.5121 1.27969C34.1826 1.27969 31.4536 3.91412 31.3035 7.1993L31.3029 7.21271L31.3026 7.21436C31.3039 7.21497 31.3054 7.2156 31.307 7.21623C31.3149 7.2192 31.3255 7.22148 31.3381 7.22148H31.5997C31.6146 7.22148 31.6194 7.21723 31.6205 7.21626C31.6213 7.21554 31.6301 7.2078 31.6353 7.18236C31.8077 4.10821 34.3571 1.61173 37.5121 1.61173C39.7686 1.61173 41.7434 2.9343 42.7299 4.80152L42.9466 5.21176H39.5003C39.4952 5.21176 39.492 5.21271 39.4893 5.21392C39.4862 5.21531 39.4823 5.21787 39.4781 5.22223C39.4739 5.2267 39.4705 5.23205 39.4684 5.23734C39.4662 5.24263 39.466 5.246 39.466 5.24671V5.50885C39.466 5.52132 39.4682 5.52872 39.4696 5.53223C39.4709 5.53568 39.4722 5.537 39.4726 5.53742C39.473 5.53785 39.4743 5.53902 39.4775 5.54033C39.4809 5.54166 39.4881 5.5438 39.5003 5.5438H43.6861C43.6865 5.5438 43.6897 5.54364 43.6948 5.54153C43.7 5.53941 43.7053 5.53607 43.7097 5.53185C43.714 5.52775 43.7167 5.52374 43.7181 5.52052C43.7194 5.51769 43.7204 5.51419 43.7204 5.50885V1.31911C43.7202 1.3186 43.7199 1.31795 43.7196 1.31718C43.717 1.31178 43.712 1.30389 43.704 1.29589C43.696 1.28789 43.6882 1.28286 43.6829 1.2804C43.6823 1.2801 43.6817 1.27987 43.6813 1.27969H43.4245C43.4194 1.27969 43.4161 1.28064 43.4134 1.28185C43.4104 1.28324 43.4064 1.2858 43.4023 1.29016C43.3981 1.29463 43.3947 1.29998 43.3925 1.30527C43.3903 1.31056 43.3901 1.31393 43.3901 1.31464V5.23167L42.8709 4.3685C41.766 2.53164 39.7864 1.27969 37.5121 1.27969ZM30.7454 7.16241C30.9149 3.58487 33.8866 0.720459 37.5121 0.720459C39.6728 0.720459 41.582 1.75413 42.8309 3.3306V1.31464C42.8309 1.01875 43.0716 0.720459 43.4245 0.720459H43.6861C43.8557 0.720459 44.0018 0.802612 44.0998 0.900857C44.1979 0.999138 44.2796 1.14526 44.2796 1.31464V5.50885C44.2796 5.8611 43.9827 6.10303 43.6861 6.10303H39.5003C39.1622 6.10303 38.9068 5.84624 38.9068 5.50885V5.24671C38.9068 4.95082 39.1474 4.65253 39.5003 4.65253H41.9951C41.0405 3.17572 39.3779 2.17096 37.5121 2.17096C34.6553 2.17096 32.342 4.43701 32.1928 7.22767L32.1922 7.23999L32.1904 7.25221C32.1453 7.56888 31.9004 7.78071 31.5997 7.78071H31.3381C31.1821 7.78071 31.0261 7.72521 30.9104 7.61571C30.7934 7.50493 30.7245 7.34354 30.7454 7.16241ZM43.3628 7.84581C43.1904 10.9479 40.6392 13.3905 37.5121 13.3905C35.2338 13.3905 33.2553 12.1241 32.2666 10.1977L32.0575 9.79043H35.5238C35.5243 9.79043 35.5275 9.79028 35.5326 9.78817C35.5377 9.78605 35.543 9.7827 35.5475 9.77849C35.5518 9.77438 35.5544 9.77038 35.5559 9.76715C35.5571 9.76433 35.5582 9.76082 35.5582 9.75548V9.49782C35.558 9.4973 35.5577 9.49666 35.5573 9.49589C35.5548 9.49048 35.5497 9.4826 35.5418 9.4746C35.5338 9.4666 35.5259 9.46157 35.5207 9.4591C35.52 9.45881 35.5195 9.45858 35.5191 9.45839H31.3381C31.333 9.45839 31.3297 9.45935 31.327 9.46056C31.324 9.46195 31.32 9.46451 31.3159 9.46887C31.3117 9.47334 31.3083 9.47869 31.3061 9.48398C31.304 9.48926 31.3038 9.49263 31.3038 9.49335V13.6876C31.3038 13.7 31.3059 13.7074 31.3073 13.7109C31.3087 13.7144 31.3099 13.7157 31.3104 13.7161C31.3108 13.7166 31.312 13.7177 31.3153 13.719C31.3187 13.7204 31.3258 13.7225 31.3381 13.7225H31.5997C31.6002 13.7225 31.6033 13.7224 31.6085 13.7202C31.6136 13.7181 31.6189 13.7148 31.6233 13.7106C31.6277 13.7065 31.6303 13.7024 31.6317 13.6992C31.633 13.6964 31.634 13.6929 31.634 13.6876V9.77663L32.1547 10.6623C33.2314 12.494 35.2084 13.7225 37.5121 13.7225C40.8162 13.7225 43.5444 11.1135 43.6945 7.82911L43.6951 7.8157L43.697 7.80241C43.6971 7.80247 43.6971 7.80162 43.697 7.80241C43.6968 7.80181 43.6958 7.79856 43.6922 7.79477C43.684 7.78614 43.6716 7.78071 43.6599 7.78071H43.3986C43.3985 7.78072 43.3986 7.7807 43.3986 7.78071C43.3979 7.78101 43.3948 7.78252 43.3902 7.78709C43.3817 7.79562 43.3689 7.81435 43.3628 7.84581ZM42.8076 7.7762C42.8482 7.49143 43.0682 7.22148 43.3983 7.22148H43.6599C43.9839 7.22148 44.2957 7.49814 44.2526 7.86614C44.083 11.4444 41.1106 14.2817 37.5121 14.2817C35.3371 14.2817 33.4275 13.2751 32.1932 11.708V13.6876C32.1932 14.0398 31.8964 14.2817 31.5997 14.2817H31.3381C31 14.2817 30.7445 14.0249 30.7445 13.6876V9.49335C30.7445 9.19745 30.9852 8.89917 31.3381 8.89917H35.5238C35.6935 8.89917 35.8395 8.98132 35.9376 9.07956C36.0357 9.17784 36.1174 9.32396 36.1174 9.49335V9.75548C36.1174 10.1077 35.8205 10.3497 35.5238 10.3497H32.9961C33.9473 11.8621 35.613 12.8312 37.5121 12.8312C40.3445 12.8312 42.656 10.6158 42.8051 7.80087L42.8058 7.78848L42.8076 7.7762Z" fill="#52575C"/>
<path d="M43.697 7.80241L43.6951 7.8157L43.6945 7.82911C43.5444 11.1135 40.8162 13.7225 37.5121 13.7225C35.2084 13.7225 33.2314 12.494 32.1547 10.6623L31.634 9.77663V13.6876C31.634 13.6929 31.633 13.6964 31.6317 13.6992C31.6303 13.7024 31.6277 13.7065 31.6233 13.7106C31.6189 13.7148 31.6136 13.7181 31.6085 13.7202C31.6033 13.7224 31.6002 13.7225 31.5997 13.7225H31.3381C31.3258 13.7225 31.3187 13.7204 31.3153 13.719C31.312 13.7177 31.3108 13.7166 31.3104 13.7161C31.3099 13.7157 31.3087 13.7144 31.3073 13.7109C31.3059 13.7074 31.3038 13.7 31.3038 13.6876V9.49335C31.3038 9.49263 31.304 9.48926 31.3061 9.48398C31.3083 9.47869 31.3117 9.47334 31.3159 9.46887C31.32 9.46451 31.324 9.46195 31.327 9.46056C31.3297 9.45935 31.333 9.45839 31.3381 9.45839H35.5191C35.5195 9.45858 35.52 9.45881 35.5207 9.4591C35.5259 9.46157 35.5338 9.4666 35.5418 9.4746C35.5497 9.4826 35.5548 9.49048 35.5573 9.49589C35.5577 9.49666 35.558 9.4973 35.5582 9.49782V9.75548C35.5582 9.76082 35.5571 9.76433 35.5559 9.76715C35.5544 9.77038 35.5518 9.77438 35.5475 9.77849C35.543 9.7827 35.5377 9.78605 35.5326 9.78817C35.5275 9.79028 35.5243 9.79043 35.5238 9.79043H32.0575L32.2666 10.1977C33.2553 12.1241 35.2338 13.3905 37.5121 13.3905C40.6392 13.3905 43.1904 10.9479 43.3628 7.84581C43.3689 7.81435 43.3817 7.79562 43.3902 7.78709C43.3948 7.78252 43.3979 7.78101 43.3986 7.78071M43.697 7.80241C43.6971 7.80247 43.6971 7.80162 43.697 7.80241ZM43.697 7.80241C43.6968 7.80181 43.6958 7.79856 43.6922 7.79477C43.684 7.78614 43.6716 7.78071 43.6599 7.78071H43.3986M43.3986 7.78071C43.3986 7.7807 43.3985 7.78072 43.3986 7.78071ZM31.3035 7.1993C31.4536 3.91412 34.1826 1.27969 37.5121 1.27969C39.7864 1.27969 41.766 2.53164 42.8709 4.3685L43.3901 5.23167V1.31464C43.3901 1.31393 43.3903 1.31056 43.3925 1.30527C43.3947 1.29998 43.3981 1.29463 43.4023 1.29016C43.4064 1.2858 43.4104 1.28324 43.4134 1.28185C43.4161 1.28064 43.4194 1.27969 43.4245 1.27969H43.6813C43.6817 1.27987 43.6823 1.2801 43.6829 1.2804C43.6882 1.28286 43.696 1.28789 43.704 1.29589C43.712 1.30389 43.717 1.31178 43.7196 1.31718C43.7199 1.31795 43.7202 1.3186 43.7204 1.31911V5.50885C43.7204 5.51419 43.7194 5.51769 43.7181 5.52052C43.7167 5.52374 43.714 5.52775 43.7097 5.53185C43.7053 5.53607 43.7 5.53941 43.6948 5.54153C43.6897 5.54364 43.6865 5.5438 43.6861 5.5438H39.5003C39.4881 5.5438 39.4809 5.54166 39.4775 5.54033C39.4743 5.53902 39.473 5.53785 39.4726 5.53742C39.4722 5.537 39.4709 5.53568 39.4696 5.53223C39.4682 5.52872 39.466 5.52132 39.466 5.50885V5.24671C39.466 5.246 39.4662 5.24263 39.4684 5.23734C39.4705 5.23205 39.4739 5.2267 39.4781 5.22223C39.4823 5.21787 39.4862 5.21531 39.4893 5.21392C39.492 5.21271 39.4952 5.21176 39.5003 5.21176H42.9466L42.7299 4.80152C41.7434 2.9343 39.7686 1.61173 37.5121 1.61173C34.3571 1.61173 31.8077 4.10821 31.6353 7.18236C31.6301 7.2078 31.6213 7.21554 31.6205 7.21626C31.6194 7.21723 31.6146 7.22148 31.5997 7.22148H31.3381C31.3255 7.22148 31.3149 7.2192 31.307 7.21623C31.3054 7.2156 31.3039 7.21497 31.3026 7.21436L31.3029 7.21271L31.3035 7.1993ZM37.5121 0.720459C33.8866 0.720459 30.9149 3.58487 30.7454 7.16241C30.7245 7.34354 30.7934 7.50493 30.9104 7.61571C31.0261 7.72521 31.1821 7.78071 31.3381 7.78071H31.5997C31.9004 7.78071 32.1453 7.56888 32.1904 7.25221L32.1922 7.23999L32.1928 7.22767C32.342 4.43701 34.6553 2.17096 37.5121 2.17096C39.3779 2.17096 41.0405 3.17572 41.9951 4.65253H39.5003C39.1474 4.65253 38.9068 4.95082 38.9068 5.24671V5.50885C38.9068 5.84624 39.1622 6.10303 39.5003 6.10303H43.6861C43.9827 6.10303 44.2796 5.8611 44.2796 5.50885V1.31464C44.2796 1.14526 44.1979 0.999138 44.0998 0.900857C44.0018 0.802612 43.8557 0.720459 43.6861 0.720459H43.4245C43.0716 0.720459 42.8309 1.01875 42.8309 1.31464V3.3306C41.582 1.75413 39.6728 0.720459 37.5121 0.720459ZM43.3983 7.22148C43.0682 7.22148 42.8482 7.49143 42.8076 7.7762L42.8058 7.78848L42.8051 7.80087C42.656 10.6158 40.3445 12.8312 37.5121 12.8312C35.613 12.8312 33.9473 11.8621 32.9961 10.3497H35.5238C35.8205 10.3497 36.1174 10.1077 36.1174 9.75548V9.49335C36.1174 9.32396 36.0357 9.17784 35.9376 9.07956C35.8395 8.98132 35.6935 8.89917 35.5238 8.89917H31.3381C30.9852 8.89917 30.7445 9.19745 30.7445 9.49335V13.6876C30.7445 14.0249 31 14.2817 31.3381 14.2817H31.5997C31.8964 14.2817 32.1932 14.0398 32.1932 13.6876V11.708C33.4275 13.2751 35.3371 14.2817 37.5121 14.2817C41.1106 14.2817 44.083 11.4444 44.2526 7.86614C44.2957 7.49814 43.9839 7.22148 43.6599 7.22148H43.3983Z" stroke="#52575C"/>
<path fill-rule="evenodd" clip-rule="evenodd" d="M7.52037 41.5407C8.01454 41.5407 8.41514 41.9413 8.41514 42.4355V48.1032C8.41514 49.2101 9.31069 50.1053 10.4107 50.1053H29.7378C30.8387 50.1053 31.7341 49.2099 31.7341 48.1032V42.4355C31.7341 41.9413 32.1347 41.5407 32.6289 41.5407C33.123 41.5407 33.5236 41.9413 33.5236 42.4355V48.1032C33.5236 50.1943 31.8309 51.8949 29.7378 51.8949H10.4107C8.31818 51.8949 6.62561 50.1942 6.62561 48.1032V42.4355C6.62561 41.9413 7.02621 41.5407 7.52037 41.5407Z" fill="#52575C" stroke="#52575C" stroke-miterlimit="10" stroke-linecap="round" stroke-linejoin="round"/>
<path fill-rule="evenodd" clip-rule="evenodd" d="M10.4107 6.36866C9.30978 6.36866 8.41514 7.26226 8.41514 8.3688V14.0379C8.41514 14.532 8.01454 14.9326 7.52037 14.9326C7.02621 14.9326 6.62561 14.532 6.62561 14.0379V8.3688C6.62561 6.27629 8.31909 4.57913 10.4107 4.57913H25.112C25.6061 4.57913 26.0067 4.97973 26.0067 5.4739C26.0067 5.96806 25.6061 6.36866 25.112 6.36866H10.4107Z" fill="#52575C" stroke="#52575C" stroke-miterlimit="10" stroke-linecap="round" stroke-linejoin="round"/>
<path fill-rule="evenodd" clip-rule="evenodd" d="M6.8493 44.9074C6.8493 44.5368 7.14975 44.2363 7.52038 44.2363H32.6289C32.9995 44.2363 33.2999 44.5368 33.2999 44.9074C33.2999 45.278 32.9995 45.5785 32.6289 45.5785H7.52038C7.14975 45.5785 6.8493 45.278 6.8493 44.9074Z" fill="#52575C" stroke="#52575C" stroke-miterlimit="10" stroke-linecap="round" stroke-linejoin="round"/>
<path fill-rule="evenodd" clip-rule="evenodd" d="M6.84863 11.564C6.84863 11.1934 7.14908 10.8929 7.51971 10.8929H27.9334C28.304 10.8929 28.6044 11.1934 28.6044 11.564C28.6044 11.9346 28.304 12.2351 27.9334 12.2351H7.51971C7.14908 12.2351 6.84863 11.9346 6.84863 11.564Z" fill="#52575C" stroke="#52575C" stroke-miterlimit="10" stroke-linecap="round" stroke-linejoin="round"/>
<path fill-rule="evenodd" clip-rule="evenodd" d="M16.9272 8.51861C16.9272 8.14798 17.2277 7.84753 17.5983 7.84753H22.5509C22.9216 7.84753 23.222 8.14798 23.222 8.51861C23.222 8.88923 22.9216 9.18968 22.5509 9.18968H17.5983C17.2277 9.18968 16.9272 8.88923 16.9272 8.51861Z" fill="#52575C" stroke="#52575C" stroke-miterlimit="10" stroke-linecap="round" stroke-linejoin="round"/>
<path fill-rule="evenodd" clip-rule="evenodd" d="M18.2432 47.9534C18.2432 47.5828 18.5436 47.2823 18.9142 47.2823H21.2356C21.6062 47.2823 21.9066 47.5828 21.9066 47.9534C21.9066 48.324 21.6062 48.6245 21.2356 48.6245H18.9142C18.5436 48.6245 18.2432 48.324 18.2432 47.9534Z" fill="#52575C" stroke="#52575C" stroke-miterlimit="10" stroke-linecap="round" stroke-linejoin="round"/>
<path fill-rule="evenodd" clip-rule="evenodd" d="M35.8485 18.7432L4.29941 18.7438H4.29939C3.52521 18.7438 2.89475 19.3727 2.89475 20.1538V36.3202C2.89475 37.1008 3.52537 37.7301 4.29939 37.7301H35.8485C36.6224 37.7301 37.2538 37.1003 37.2538 36.3202V20.1531C37.2538 19.3728 36.6229 18.7432 35.8485 18.7432ZM4.29939 16.9543L35.8485 16.9537C37.6146 16.9537 39.0433 18.3879 39.0433 20.1531V36.3202C39.0433 38.0856 37.6138 39.5196 35.8485 39.5196H4.29939C2.53299 39.5196 1.10522 38.0851 1.10522 36.3202V20.1538C1.10522 18.3881 2.53314 16.9543 4.29937 16.9543C4.29938 16.9543 4.29939 16.9543 4.29939 16.9543Z" fill="#52575C" stroke="#52575C" stroke-miterlimit="10" stroke-linecap="round" stroke-linejoin="round"/>
<path fill-rule="evenodd" clip-rule="evenodd" d="M6.61547 22.1693C6.22929 22.1693 5.91386 22.4832 5.91386 22.8737V26.9658C5.91386 27.3561 6.22906 27.6702 6.61547 27.6702H12.3466C12.733 27.6702 13.0482 27.3561 13.0482 26.9658V22.8737C13.0482 22.4834 12.733 22.1693 12.3466 22.1693H6.61547ZM4.57172 22.8737C4.57172 21.7441 5.4859 20.8272 6.61547 20.8272H12.3466C13.4772 20.8272 14.3903 21.7452 14.3903 22.8737V26.9658C14.3903 28.0944 13.4772 29.0124 12.3466 29.0124H6.61547C5.48485 29.0124 4.57172 28.0944 4.57172 26.9658V22.8737Z" fill="#52575C" stroke="#52575C" stroke-miterlimit="10" stroke-linecap="round" stroke-linejoin="round"/>
<path fill-rule="evenodd" clip-rule="evenodd" d="M4.57117 23.7771C4.57117 23.4065 4.87162 23.106 5.24224 23.106H6.9597C7.33033 23.106 7.63078 23.4065 7.63078 23.7771C7.63078 24.1477 7.33033 24.4482 6.9597 24.4482H5.24224C4.87162 24.4482 4.57117 24.1477 4.57117 23.7771Z" fill="#52575C" stroke="#52575C" stroke-miterlimit="10" stroke-linecap="round" stroke-linejoin="round"/>
<path fill-rule="evenodd" clip-rule="evenodd" d="M4.57117 26.0618C4.57117 25.6912 4.87162 25.3907 5.24224 25.3907H6.9597C7.33033 25.3907 7.63078 25.6912 7.63078 26.0618C7.63078 26.4324 7.33033 26.7329 6.9597 26.7329H5.24224C4.87162 26.7329 4.57117 26.4324 4.57117 26.0618Z" fill="#52575C" stroke="#52575C" stroke-miterlimit="10" stroke-linecap="round" stroke-linejoin="round"/>
<path fill-rule="evenodd" clip-rule="evenodd" d="M11.3308 23.7771C11.3308 23.4065 11.6313 23.106 12.0019 23.106H13.7193C14.09 23.106 14.3904 23.4065 14.3904 23.7771C14.3904 24.1477 14.09 24.4482 13.7193 24.4482H12.0019C11.6313 24.4482 11.3308 24.1477 11.3308 23.7771Z" fill="#52575C" stroke="#52575C" stroke-miterlimit="10" stroke-linecap="round" stroke-linejoin="round"/>
<path fill-rule="evenodd" clip-rule="evenodd" d="M11.3308 26.0618C11.3308 25.6912 11.6313 25.3907 12.0019 25.3907H13.7193C14.09 25.3907 14.3904 25.6912 14.3904 26.0618C14.3904 26.4324 14.09 26.7329 13.7193 26.7329H12.0019C11.6313 26.7329 11.3308 26.4324 11.3308 26.0618Z" fill="#52575C" stroke="#52575C" stroke-miterlimit="10" stroke-linecap="round" stroke-linejoin="round"/>
<path fill-rule="evenodd" clip-rule="evenodd" d="M22.2001 34.9764C22.2001 34.6058 22.5005 34.3053 22.8711 34.3053H34.9063C35.2769 34.3053 35.5774 34.6058 35.5774 34.9764C35.5774 35.347 35.2769 35.6475 34.9063 35.6475H22.8711C22.5005 35.6475 22.2001 35.347 22.2001 34.9764Z" fill="#52575C" stroke="#52575C" stroke-miterlimit="10" stroke-linecap="round" stroke-linejoin="round"/>
<path fill-rule="evenodd" clip-rule="evenodd" d="M4.78058 31.6585C4.78058 31.2879 5.08103 30.9875 5.45165 30.9875H12.4981C12.8687 30.9875 13.1692 31.2879 13.1692 31.6585C13.1692 32.0292 12.8687 32.3296 12.4981 32.3296H5.45165C5.08103 32.3296 4.78058 32.0292 4.78058 31.6585Z" fill="#52575C" stroke="#52575C" stroke-miterlimit="10" stroke-linecap="round" stroke-linejoin="round"/>
<path fill-rule="evenodd" clip-rule="evenodd" d="M15.8799 31.6585C15.8799 31.2879 16.1804 30.9875 16.551 30.9875H23.5975C23.9681 30.9875 24.2685 31.2879 24.2685 31.6585C24.2685 32.0292 23.9681 32.3296 23.5975 32.3296H16.551C16.1804 32.3296 15.8799 32.0292 15.8799 31.6585Z" fill="#52575C" stroke="#52575C" stroke-miterlimit="10" stroke-linecap="round" stroke-linejoin="round"/>
<path fill-rule="evenodd" clip-rule="evenodd" d="M26.9794 31.6585C26.9794 31.2879 27.2798 30.9875 27.6504 30.9875H34.6969C35.0675 30.9875 35.368 31.2879 35.368 31.6585C35.368 32.0292 35.0675 32.3296 34.6969 32.3296H27.6504C27.2798 32.3296 26.9794 32.0292 26.9794 31.6585Z" fill="#52575C" stroke="#52575C" stroke-miterlimit="10" stroke-linecap="round" stroke-linejoin="round"/>
</svg>
