<svg width="552" height="240" viewBox="0 0 552 240" fill="none" xmlns="http://www.w3.org/2000/svg">
<mask id="mask0_4948_11790" style="mask-type:alpha" maskUnits="userSpaceOnUse" x="0" y="0" width="552" height="240">
<rect width="552" height="240" rx="10" fill="#F9F9FA"/>
</mask>
<g mask="url(#mask0_4948_11790)">
<path d="M552 12.1246C552 -0.243107 545.276 -2.42847 537.039 2.3265L374.817 95.985C363.938 102.277 360 112.795 360 122.954V587.884C360 600.252 366.7 602.438 374.937 597.683L537.183 504.024C548.085 497.732 552.024 487.19 552 477.055V12.1246Z" fill="#EC3342"/>
<path d="M480 90.526C480 87.9494 478.599 87.4941 476.883 88.4847L443.087 107.997C440.821 109.308 440 111.499 440 113.615V210.476C440 213.053 441.396 213.508 443.112 212.517L476.913 193.005C479.184 191.694 480.005 189.498 480 187.387V90.526Z" fill="white"/>
</g>
</svg>
