<svg width="552" height="240" viewBox="0 0 552 240" fill="none" xmlns="http://www.w3.org/2000/svg">
<mask id="mask0_4948_11797" style="mask-type:alpha" maskUnits="userSpaceOnUse" x="0" y="0" width="552" height="240">
<rect width="552" height="240" rx="10" fill="#F9F9FA"/>
</mask>
<g mask="url(#mask0_4948_11797)">
<path d="M552 12.1246C552 -0.243107 545.276 -2.42847 537.039 2.3265L374.817 95.985C363.938 102.277 360 112.795 360 122.954V587.884C360 600.252 366.7 602.438 374.937 597.683L537.183 504.024C548.085 497.732 552.024 487.19 552 477.055V12.1246Z" fill="#FFDD00"/>
<path d="M378 117.023C390.853 116.971 403.653 117.023 416.506 117.023C430.02 140.36 443.518 163.714 456.997 187.086C455.325 189.855 453.758 192.677 452.086 195.446C449.944 198.998 447.07 202.29 443.256 204.066C440.435 205.477 436.987 205.791 433.956 204.798C430.351 203.648 427.425 201.088 425.179 198.163C423.768 196.386 422.723 194.349 421.574 192.415C407.049 167.285 392.525 142.154 378 117.023ZM429.202 117.023C442.002 116.971 454.855 117.023 467.656 117.023C476.642 132.488 485.628 148.006 494.563 163.471C495.137 164.411 495.608 165.456 496.391 166.24C498.115 168.225 500.937 169.218 503.549 168.539C505.482 168.068 507.102 166.658 508.199 164.986C498.951 148.998 489.704 133.011 480.456 117.023C493.274 117.023 506.109 117.023 518.962 117.023C523.908 125.592 528.854 134.178 533.8 142.781C523.699 160.231 513.598 177.699 503.497 195.184C501.511 198.581 498.899 201.663 495.451 203.596C492.577 205.268 489.024 205.843 485.785 204.955C482.076 204.014 479.045 201.506 476.694 198.528C475.075 196.543 473.873 194.296 472.619 192.05C458.129 167.041 443.657 142.032 429.202 117.023Z" fill="black"/>
</g>
</svg>
