<svg width="552" height="240" viewBox="0 0 552 240" fill="none" xmlns="http://www.w3.org/2000/svg">
<mask id="mask0_4948_11782" style="mask-type:alpha" maskUnits="userSpaceOnUse" x="0" y="0" width="552" height="240">
<rect width="552" height="240" rx="10" fill="#F9F9FA"/>
</mask>
<g mask="url(#mask0_4948_11782)">
<path d="M552 12.1246C552 -0.243107 545.276 -2.42847 537.039 2.3265L374.817 95.985C363.938 102.277 360 112.795 360 122.954V587.884C360 600.252 366.7 602.438 374.937 597.683L537.183 504.024C548.085 497.732 552.024 487.19 552 477.055V12.1246Z" fill="#E31A3C"/>
<path fill-rule="evenodd" clip-rule="evenodd" d="M425.204 184H496.01V176.079H425.247V184H425.204ZM460.393 103L469.834 111.858L460.393 120.546L451.209 111.858L460.393 103ZM510 141.03C496.659 130.164 480.049 124.02 462.796 123.569V172.715H480.004C483.008 172.715 483.995 170.074 483.995 170.074L496.611 141.413C497.813 142.18 499.014 142.946 500.044 143.713L487.17 172.672H496.182L510 141.03ZM471.207 165.517V132.215C477.644 133.151 483.651 135.025 489.402 137.666L477.601 164.41C477.172 165.347 476.528 165.517 475.627 165.517H471.164H471.207ZM411 141.03C424.359 130.195 440.958 124.056 458.204 123.569V172.715H441.039C438.035 172.715 437.005 170.074 437.005 170.074L424.389 141.413C423.187 142.18 421.986 142.946 420.956 143.713L434.001 172.672H424.775L411 141.03ZM449.793 165.517V132.215C443.356 133.151 437.391 135.025 431.77 137.666L443.399 164.41C443.828 165.347 444.558 165.517 445.416 165.517H449.793Z" fill="#FECC00"/>
</g>
</svg>
