<svg width="73" height="80" viewBox="0 0 73 80" fill="none" xmlns="http://www.w3.org/2000/svg">
<path d="M14.0463 27.0471C15.6782 29.6587 18.4822 31.236 21.5506 31.2676C22.2373 31.2762 23.0015 31.2704 23.806 31.2532C20.7491 34.8732 17.922 39.6654 17.922 43.8457C17.922 53.2348 25.1391 57.6621 34.0426 57.6621C42.9433 57.6621 50.1632 53.2348 50.1632 43.8457C50.1632 38.4817 46.049 32.6782 41.8544 28.6818C42.2911 28.0756 42.5583 27.3516 42.564 26.573C42.5698 25.7025 42.294 24.9239 41.817 24.2774C42.7307 23.5736 43.3225 22.4761 43.3225 21.2435C43.3225 20.419 43.0582 19.6605 42.6215 19.0342C43.5782 18.3303 44.2045 17.2098 44.2045 15.9428C44.2045 14.6671 43.5782 13.5467 42.6215 12.8428C43.2651 11.9205 43.5351 10.711 43.1386 9.46407C42.768 8.29475 41.8343 7.4357 40.7081 7.03635C41.8142 5.9015 43.6615 3.79557 43.6759 2.35331C43.6931 0.612246 29.1182 -1.42187 29.7819 1.39946C30.0204 2.42226 30.4829 3.32152 30.9713 4.05989L26.5842 3.48528C23.806 3.12041 21.0048 3.97657 18.9046 5.83255L13.69 10.438H10.7193V9.75712C10.7193 8.7257 9.88325 7.88677 8.84895 7.88677H1.87035C0.838927 7.88677 0 8.72283 0 9.75712V27.1677C0 28.1991 0.836054 29.0352 1.87035 29.0352H8.85183C9.88325 29.0352 10.7222 28.1991 10.7222 27.1677V26.4926H13.6986L14.0463 27.0471ZM5.36109 25.8145C4.3584 25.8145 3.5482 25.0014 3.5482 24.0016C3.5482 22.9989 4.36127 22.1887 5.36109 22.1887C6.36378 22.1887 7.17397 23.0018 7.17397 24.0016C7.17397 25.0043 6.3609 25.8145 5.36109 25.8145ZM38.6998 27.9837H34.5885C33.7955 27.9837 33.1462 27.3344 33.1462 26.5443C33.1462 25.7398 33.7955 25.102 34.5885 25.102H38.6998C39.5043 25.102 40.1421 25.7398 40.1421 26.5443C40.1421 27.3344 39.5043 27.9837 38.6998 27.9837ZM39.4583 22.6829H33.8415C33.0371 22.6829 32.3992 22.0336 32.3992 21.2435C32.3992 20.4391 33.0371 19.8041 33.8415 19.8041H39.4583C40.2512 19.8041 40.9006 20.4419 40.9006 21.2435C40.8977 22.0336 40.2512 22.6829 39.4583 22.6829ZM36.4301 9.20262H39.4583C40.2512 9.20262 40.9006 9.85193 40.9006 10.6449C40.9006 11.435 40.2512 12.0843 39.4583 12.0843H36.4071L36.4588 9.62208C36.4617 9.47843 36.4359 9.3434 36.4301 9.20262ZM36.3296 15.8623L36.3583 14.5034H40.3403C41.1304 14.5034 41.7797 15.1412 41.7797 15.9428C41.7797 16.7357 41.1304 17.385 40.3403 17.385H35.9704C36.1859 16.9167 36.3181 16.4053 36.3296 15.8623ZM10.7193 12.8571H14.1382C14.4313 12.8571 14.7186 12.7508 14.9398 12.5555L20.4962 7.64831C22.0735 6.25776 24.1737 5.6142 26.2567 5.88714L31.4569 6.56805C32.9595 6.76629 34.0484 8.07927 34.0369 9.57325L33.9076 15.8135C33.8903 16.5748 33.2583 17.1954 32.4969 17.1954C32.1091 17.1954 31.7471 17.0403 31.4799 16.7616C31.2127 16.4829 31.092 16.1065 31.0891 15.7273L31.2701 11.4407C31.2989 10.8403 30.8535 10.2858 30.2445 10.1938L27.5179 9.78011C26.8571 9.67955 26.2394 10.1335 26.1389 10.7943C26.047 11.4493 26.4923 12.0699 27.1559 12.1705L28.5235 12.3773C26.544 16.6352 22.3838 16.3278 22.1712 16.3076C21.5133 16.2416 20.9186 16.7242 20.841 17.385V17.5172C20.841 18.1205 21.3036 18.6492 21.9299 18.7153C23.6106 18.8905 26.4549 18.4107 28.7016 16.2473C28.7907 17.0661 29.1527 17.8275 29.7359 18.4337C30.0031 18.7095 30.3077 18.9221 30.6323 19.106C30.2301 19.7179 29.983 20.4506 29.983 21.2435C29.983 21.9589 30.2014 22.6197 30.549 23.1943C30.1267 24.4843 29.3682 25.9927 27.6989 27.3545C27.2048 27.7567 26.6848 28.2221 26.1504 28.7364C24.4697 28.8398 22.8952 28.8628 21.5794 28.8484C19.3384 28.8255 17.2899 27.6705 16.1005 25.7628L15.3995 24.6395C15.1783 24.2861 14.7904 24.0735 14.3738 24.0735H10.7193V12.8571Z" fill="#82848A"/>
<path d="M63.0344 55.5103H56.0529C55.0187 55.5103 54.1826 56.3463 54.1826 57.3777V58.1305L53.5965 57.9667C51.4187 57.3605 49.083 57.5271 47.0144 58.435L36.4244 63.0836L30.7846 61.558C29.7876 61.2879 28.7476 61.4258 27.8541 61.9458C27.607 62.0895 27.3772 62.259 27.1732 62.4486L20.1974 57.869C19.1603 57.1881 17.9277 56.9669 16.7211 57.2484C15.5144 57.5271 14.5031 58.2684 13.871 59.3343C12.7362 61.2506 13.1614 63.6697 14.8823 65.0861L30.6496 78.0521C32.2067 79.3335 34.1346 80 36.0882 80C37.1599 80 38.2372 79.7989 39.2629 79.3881L50.1891 75.021C51.2492 74.5987 52.3611 74.32 53.4931 74.1907L54.1826 74.1132V74.7912C54.1826 75.8255 55.0187 76.6587 56.0529 76.6587H63.0344C64.0687 76.6587 64.9048 75.8226 64.9048 74.7912V57.3806C64.9048 56.3463 64.0687 55.5103 63.0344 55.5103ZM53.2259 71.7889C51.8755 71.9411 50.554 72.2715 49.2927 72.7772L38.3665 77.1442C36.2865 77.9745 33.9191 77.6068 32.1866 76.1846L16.4194 63.2186C15.6264 62.5664 15.4282 61.4488 15.954 60.5668C16.2442 60.0755 16.7125 59.7336 17.267 59.6043C17.425 59.567 17.583 59.5497 17.7381 59.5497C18.1375 59.5497 18.5253 59.6647 18.8672 59.8916L26.0096 64.5804C25.6821 66.4077 26.7422 68.2579 28.5178 68.8785L35.4159 71.289C36.4761 71.6596 37.6425 71.6625 38.7084 71.3005L45.0894 69.1256C45.7215 68.9101 46.0605 68.2234 45.845 67.5914C45.6296 66.9593 44.9429 66.6203 44.3108 66.8358L37.9298 69.0106C37.3753 69.2003 36.7691 69.1974 36.2175 69.0049L29.3193 66.5944C28.6298 66.3531 28.2333 65.6118 28.4172 64.9051C28.512 64.5373 28.7447 64.227 29.0751 64.0345C29.4055 63.8421 29.7876 63.7932 30.1583 63.8909L36.2118 65.5285C36.4789 65.6004 36.7605 65.5802 37.0133 65.4682L47.9941 60.6472C49.5541 59.9634 51.3153 59.837 52.9529 60.2938L54.1883 60.6386V71.6797L53.2259 71.7889ZM59.5379 73.4437C58.5381 73.4437 57.7337 72.6307 57.7337 71.6309C57.7337 70.631 58.5352 69.818 59.5379 69.818C60.5492 69.818 61.3508 70.631 61.3508 71.6309C61.3537 72.6307 60.5521 73.4437 59.5379 73.4437Z" fill="#82848A"/>
<circle cx="61" cy="12" r="12" fill="#EC3342"/>
<path d="M65.8421 5.05263C66.4235 4.47128 67.3661 4.47128 67.9474 5.05263C68.5288 5.63398 68.5288 6.57654 67.9474 7.15789L56.1579 18.9474C55.5766 19.5287 54.634 19.5287 54.0527 18.9474C53.4713 18.366 53.4713 17.4235 54.0527 16.8421L65.8421 5.05263Z" fill="white"/>
<path d="M54.0526 7.15786C53.4713 6.5765 53.4713 5.63395 54.0526 5.05259C54.634 4.47124 55.5765 4.47124 56.1579 5.05259L67.9474 16.8421C68.5287 17.4234 68.5287 18.366 67.9474 18.9473C67.366 19.5287 66.4235 19.5287 65.8421 18.9473L54.0526 7.15786Z" fill="white"/>
<path d="M26.2798 47.56C26.2798 46.6 26.3864 45.7133 26.5998 44.9C26.8264 44.0733 27.1864 43.3467 27.6798 42.72C28.1731 42.0933 28.8264 41.5933 29.6398 41.22C30.4531 40.8467 31.4598 40.6333 32.6598 40.58V36.72H35.3798V40.58C36.5931 40.6333 37.6064 40.8267 38.4198 41.16C39.2331 41.4933 39.8798 41.96 40.3598 42.56C40.8531 43.1467 41.1998 43.86 41.3998 44.7C41.6131 45.5267 41.7198 46.4667 41.7198 47.52V51H38.8798V47.56C38.8798 46.64 38.8064 45.9 38.6598 45.34C38.5131 44.7667 38.2931 44.32 37.9998 44C37.7198 43.68 37.3598 43.4533 36.9198 43.32C36.4798 43.1733 35.9664 43.0733 35.3798 43.02V47.6H32.6598V43.02C32.1131 43.0733 31.6198 43.1667 31.1798 43.3C30.7531 43.4333 30.3864 43.66 30.0798 43.98C29.7731 44.2867 29.5331 44.7267 29.3598 45.3C29.1998 45.86 29.1198 46.6 29.1198 47.52V51H26.2798V47.56Z" fill="white"/>
</svg>
