<svg width="80" height="80" viewBox="0 0 80 80" fill="none" xmlns="http://www.w3.org/2000/svg">
<mask id="mask0_3080_708" style="mask-type:alpha" maskUnits="userSpaceOnUse" x="0" y="0" width="80" height="80">
<rect width="80" height="80" fill="#D9D9D9"/>
</mask>
<g mask="url(#mask0_3080_708)">
<path d="M23.5059 34.3353C23.5059 44.1241 31.4194 52.0598 41.1809 52.0598C50.9424 52.0598 58.8559 44.1241 58.8559 34.3353C58.8559 24.5439 50.9424 16.6108 41.1809 16.6108C31.4194 16.6083 23.5059 24.5439 23.5059 34.3353Z" fill="#82848A"/>
<path d="M26.6674 15.3119C26.945 15.3119 27.2251 15.2294 27.4693 15.0541C31.7435 11.9948 36.9506 10.469 42.1963 10.6933L40.6157 12.0721C40.04 12.5747 39.9809 13.4485 40.4795 14.0258C40.7519 14.3402 41.1349 14.5 41.5204 14.5C41.8417 14.5 42.1629 14.3892 42.4251 14.1624L46.5502 10.567C47.1259 10.0644 47.185 9.19066 46.6864 8.61334L43.101 4.47668C42.5999 3.89935 41.7311 3.8375 41.1554 4.34008C40.5797 4.84267 40.5206 5.71639 41.0192 6.29372L42.4431 7.93549C36.5291 7.64425 30.6717 9.36077 25.8655 12.8041C25.2461 13.25 25.1022 14.1108 25.5442 14.7346C25.8141 15.1108 26.2382 15.3119 26.6674 15.3119Z" fill="#EC3342"/>
<path d="M67.0703 19.3144C66.3507 19.0618 65.5668 19.451 65.3175 20.1727L64.6107 22.2294C61.9017 16.9639 57.4964 12.7215 52.1171 10.2679C51.4257 9.95089 50.6058 10.2602 50.2897 10.9535C49.9736 11.6494 50.2794 12.469 50.9734 12.786C55.7539 14.969 59.6759 18.7294 62.1048 23.397L60.1232 22.7114C59.4061 22.4588 58.617 22.8454 58.3703 23.5696C58.121 24.2913 58.5039 25.08 59.2262 25.3274L64.3922 27.1135C64.5387 27.165 64.6903 27.1882 64.842 27.1882C65.0502 27.1882 65.2558 27.1418 65.446 27.0465C65.775 26.8867 66.0268 26.6006 66.1451 26.2527L67.9236 21.0696C68.1729 20.3505 67.7925 19.5618 67.0703 19.3144Z" fill="#EC3342"/>
<path d="M67.4351 31.7993C67.3606 31.039 66.6692 30.4488 65.929 30.557C65.1708 30.6292 64.6157 31.307 64.6876 32.0674C65.194 37.3071 63.9063 42.5933 61.0894 47.0392L60.6885 44.9773C60.542 44.2273 59.8146 43.735 59.0718 43.8845C58.3239 44.0314 57.8356 44.7557 57.9795 45.5083L59.023 50.8872C59.1515 51.547 59.7298 52.0058 60.3749 52.0058C60.4623 52.0058 60.5497 51.998 60.6396 51.98L66.0036 50.9362C66.7515 50.7893 67.2398 50.065 67.0959 49.315C66.9494 48.565 66.222 48.0598 65.4792 48.2196L63.3486 48.6346C66.5459 43.6448 68.0057 37.6963 67.4351 31.7993Z" fill="#EC3342"/>
<path d="M15.2915 49.3535C15.4406 49.4051 15.5922 49.4283 15.7413 49.4283C16.3144 49.4283 16.849 49.0674 17.0444 48.4953L17.7512 46.4334C19.1622 49.1989 21.0384 51.6886 23.3104 53.7737C24.12 53.2015 25.0016 52.7402 25.9603 52.4283C23.6214 50.4618 21.7041 48.0159 20.2751 45.2787L22.2387 45.9566C22.9532 46.204 23.7448 45.8225 23.9915 45.0983C24.2408 44.3766 23.8579 43.588 23.1357 43.3405L17.9696 41.5544C17.6252 41.4385 17.2448 41.4565 16.9159 41.6189C16.5869 41.7787 16.335 42.0648 16.2168 42.4127L14.4382 47.5958C14.1889 48.32 14.5719 49.1061 15.2915 49.3535Z" fill="#EC3342"/>
<path d="M14.9268 36.8689C14.9962 37.5828 15.5976 38.1189 16.2993 38.1189C16.343 38.1189 16.3892 38.1164 16.4329 38.1112C17.1911 38.0365 17.7463 37.3612 17.6743 36.6009C17.168 31.3611 18.4556 26.0724 21.2725 21.629L21.6735 23.6935C21.802 24.3533 22.3803 24.8121 23.0254 24.8121C23.1128 24.8121 23.2002 24.8043 23.2901 24.7863C24.038 24.6394 24.5264 23.9151 24.3824 23.1625L23.3389 17.7836C23.1924 17.0336 22.4702 16.5387 21.7223 16.6908L16.3558 17.7372C15.6079 17.8841 15.1196 18.6084 15.2635 19.3584C15.4074 20.1084 16.1296 20.6084 16.8801 20.4537L19.0108 20.0388C15.8186 25.026 14.3588 30.9745 14.9268 36.8689Z" fill="#EC3342"/>
<path d="M54.9879 54.2247L47.0204 56.9257C47.0383 57.1268 47.0384 57.3355 47.0332 57.5443C46.9638 59.8433 45.3163 61.7944 43.0829 62.3279L42.7565 62.4078C39.7519 63.1269 36.6909 63.5805 33.6067 63.766L31.1419 63.9129C30.7512 63.9361 30.3734 63.8073 30.0804 63.547C29.7874 63.2866 29.6126 62.9258 29.5895 62.5341C29.5664 62.1397 29.6974 61.7634 29.9544 61.4696C30.214 61.1758 30.5739 61.0005 30.9645 60.9773L33.5681 60.8201C36.3696 60.65 39.1531 60.2402 41.8877 59.5907L42.4069 59.467C43.381 59.2376 44.0724 58.3794 44.0981 57.3794C44.1135 56.7866 43.895 56.2273 43.4838 55.802C43.0623 55.3742 42.5149 55.1371 41.9289 55.1267L28.9752 54.9747C27.5591 54.9566 26.1532 55.4231 25.0223 56.2814L12.3128 66.663C11.9144 66.9852 11.8939 67.5883 12.2666 67.9388L20.5785 75.7688C20.8895 76.0626 21.3675 76.0781 21.6965 75.8049L25.1534 72.9517C25.616 72.5703 26.2097 72.3821 26.8086 72.4259L36.6086 73.1476C38.4874 73.2868 40.3482 72.6966 41.8055 71.5007L57.445 58.6655C58.013 58.199 58.3471 57.5391 58.3831 56.8046C58.4216 56.0675 58.1569 55.3767 57.6403 54.8535C56.9618 54.1628 55.9054 53.9154 54.9879 54.2247Z" fill="#82848A"/>
</g>
<path d="M32.2357 37.872C32.2357 36.72 32.3637 35.656 32.6197 34.68C32.8917 33.688 33.3237 32.816 33.9157 32.064C34.5077 31.312 35.2917 30.712 36.2677 30.264C37.2437 29.816 38.4517 29.56 39.8917 29.496V24.864H43.1557V29.496C44.6117 29.56 45.8277 29.792 46.8037 30.192C47.7797 30.592 48.5557 31.152 49.1317 31.872C49.7237 32.576 50.1397 33.432 50.3797 34.44C50.6357 35.432 50.7637 36.56 50.7637 37.824V42H47.3557V37.872C47.3557 36.768 47.2677 35.88 47.0917 35.208C46.9157 34.52 46.6517 33.984 46.2997 33.6C45.9637 33.216 45.5317 32.944 45.0037 32.784C44.4757 32.608 43.8597 32.488 43.1557 32.424V37.92H39.8917V32.424C39.2357 32.488 38.6437 32.6 38.1157 32.76C37.6037 32.92 37.1637 33.192 36.7957 33.576C36.4277 33.944 36.1397 34.472 35.9317 35.16C35.7397 35.832 35.6437 36.72 35.6437 37.824V42H32.2357V37.872Z" fill="white"/>
</svg>
