<svg width="80" height="80" viewBox="0 0 80 80" fill="none" xmlns="http://www.w3.org/2000/svg">
<mask id="mask0_3080_697" style="mask-type:alpha" maskUnits="userSpaceOnUse" x="0" y="0" width="80" height="80">
<rect width="80" height="80" fill="#D9D9D9"/>
</mask>
<g mask="url(#mask0_3080_697)">
<path d="M12.6535 65.1978H2.18979C1.53447 65.1978 1 65.7295 1 66.3875V74.8074C1 75.4654 1.53178 75.9972 2.18979 75.9972H12.6535C13.3089 75.9972 13.8433 75.4654 13.8433 74.8074V66.3875C13.8433 65.7322 13.3089 65.1978 12.6535 65.1978Z" fill="#82848A"/>
<path d="M30.855 57.1111H20.3912C19.7332 57.1111 19.2014 57.6429 19.2014 58.3009V74.8103C19.2014 75.4683 19.7332 76.0001 20.3912 76.0001H30.855C31.513 76.0001 32.0447 75.4683 32.0447 74.8103V58.3009C32.0447 57.6429 31.5103 57.1111 30.855 57.1111Z" fill="#82848A"/>
<path d="M49.0564 49.0215H38.5926C37.9373 49.0215 37.4028 49.5533 37.4028 50.2113V74.8102C37.4028 75.4682 37.9346 76 38.5926 76H49.0564C49.7117 76 50.2462 75.4682 50.2462 74.8102V50.2113C50.2435 49.5533 49.7117 49.0215 49.0564 49.0215Z" fill="#82848A"/>
<path d="M68.4503 40.3813V74.8075C68.4503 75.4682 67.9104 75.9919 67.2497 75.9919H56.786C56.1387 75.9919 55.6016 75.4682 55.6016 74.8075V40.3813C57.6186 41.0582 59.7887 41.4127 62.0179 41.4127C64.2658 41.4127 66.4198 41.0582 68.4503 40.3813Z" fill="#82848A"/>
<path d="M39.283 31.1557L29.4826 27.4118C28.309 26.9498 27.001 27.5461 26.5552 28.7198C26.1066 29.8881 26.6948 31.2014 27.8631 31.6472L32.5498 33.4386L2.77808 46.7547C1.63394 47.265 1.12096 48.6052 1.63126 49.7493C2.00995 50.5899 2.83717 51.0922 3.70467 51.0922C4.01353 51.0922 4.33045 51.0304 4.62857 50.8934L34.403 37.5774L32.6116 42.2668C32.163 43.4404 32.7512 44.7484 33.9222 45.1942C34.1881 45.2963 34.4621 45.3446 34.7306 45.3446C35.6438 45.3446 36.5059 44.7914 36.8497 43.8863L40.5937 34.0805C41.0395 32.9096 40.454 31.6016 39.283 31.1557Z" fill="#82848A"/>
<path d="M62.0233 4C52.7977 4 45.3179 11.4799 45.3179 20.7055C45.3179 29.9311 52.7977 37.4109 62.0233 37.4109C71.2489 37.4109 78.7288 29.9311 78.7288 20.7055C78.7288 11.4799 71.2489 4 62.0233 4Z" fill="#EC3342"/>
</g>
<path d="M53.2357 24.872C53.2357 23.72 53.3637 22.656 53.6197 21.68C53.8917 20.688 54.3237 19.816 54.9157 19.064C55.5077 18.312 56.2917 17.712 57.2677 17.264C58.2437 16.816 59.4517 16.56 60.8917 16.496V11.864H64.1557V16.496C65.6117 16.56 66.8277 16.792 67.8037 17.192C68.7797 17.592 69.5557 18.152 70.1317 18.872C70.7237 19.576 71.1397 20.432 71.3797 21.44C71.6357 22.432 71.7637 23.56 71.7637 24.824V29H68.3557V24.872C68.3557 23.768 68.2677 22.88 68.0917 22.208C67.9157 21.52 67.6517 20.984 67.2997 20.6C66.9637 20.216 66.5317 19.944 66.0037 19.784C65.4757 19.608 64.8597 19.488 64.1557 19.424V24.92H60.8917V19.424C60.2357 19.488 59.6437 19.6 59.1157 19.76C58.6037 19.92 58.1637 20.192 57.7957 20.576C57.4277 20.944 57.1397 21.472 56.9317 22.16C56.7397 22.832 56.6437 23.72 56.6437 24.824V29H53.2357V24.872Z" fill="white"/>
</svg>
