<svg width="80" height="80" viewBox="0 0 80 80" fill="none" xmlns="http://www.w3.org/2000/svg">
<mask id="mask0_3080_731" style="mask-type:alpha" maskUnits="userSpaceOnUse" x="0" y="0" width="80" height="80">
<rect width="80" height="80" fill="#D9D9D9"/>
</mask>
<g mask="url(#mask0_3080_731)">
<path d="M79.3198 49.3493C76.0236 37.1966 70.0922 22.861 59.9978 17.3123L66.7989 10.6735C69.295 8.23836 67.5701 4 64.0825 4H37.7769C34.2893 4 32.5644 8.23836 35.0605 10.6735L41.85 17.3007C34.6923 21.2405 29.6248 29.5954 26.1228 38.4606C30.0307 39.8 32.805 41.9278 32.805 44.8182V71.1267C34.6546 71.982 36.6665 72.5357 38.8147 72.7444C42.3979 73.0691 46.442 73.301 50.9268 73.301C55.4116 73.301 59.4586 73.0691 63.065 72.7444C74.5364 71.6573 82.3492 60.4671 79.3198 49.3493Z" fill="#82848A"/>
<path d="M15.2806 40.0608C6.56321 40.0608 1 42.8786 1 44.8181C1 46.7575 6.56321 49.5725 15.2806 49.5725C24.0008 49.5725 29.5611 46.7575 29.5611 44.8181C29.564 42.8786 24.0008 40.0608 15.2806 40.0608Z" fill="#82848A"/>
<path d="M1 67.1985V71.2455C1 73.185 6.56321 75.9999 15.2806 75.9999C24.0008 75.9999 29.5611 73.185 29.5611 71.2455V67.1985C26.178 69.3148 20.6234 70.428 15.2806 70.428C9.93767 70.428 4.38315 69.3148 1 67.1985Z" fill="#82848A"/>
<path d="M1 58.3914V62.4384C1 64.3778 6.56321 67.1928 15.2806 67.1928C24.0008 67.1928 29.5611 64.3778 29.5611 62.4384V58.3914C26.178 60.5076 20.6234 61.6209 15.2806 61.6209C9.93767 61.618 4.38315 60.5076 1 58.3914Z" fill="#82848A"/>
<path d="M1 49.5813V53.6283C1 55.5678 6.56321 58.3827 15.2806 58.3827C24.0008 58.3827 29.5611 55.5678 29.5611 53.6283V49.5813C26.178 51.6976 20.6234 52.8108 15.2806 52.8108C9.93767 52.8108 4.38315 51.6976 1 49.5813Z" fill="#82848A"/>
<path d="M6.60376 11.6071L13.5034 4.70739C14.4427 3.76811 16.1183 3.76811 17.0257 4.70739L23.9544 11.6071C24.9227 12.6043 24.9227 14.1611 23.9544 15.1612C23.4558 15.6309 22.8383 15.8947 22.1918 15.8947C21.5453 15.8947 20.8988 15.6309 20.4292 15.1612L17.7563 12.4884V32.7467C17.7563 34.1266 16.6402 35.2427 15.2602 35.2427C13.8803 35.2427 12.7642 34.1266 12.7642 32.7467V12.4884L10.1232 15.1612C9.1549 16.1295 7.56914 16.1295 6.60087 15.1612C5.63549 14.1611 5.63549 12.6072 6.60376 11.6071Z" fill="#EC3342"/>
</g>
<path d="M41.1476 52.496C41.1476 50.96 41.3183 49.5413 41.6596 48.24C42.0223 46.9173 42.5983 45.7547 43.3876 44.752C44.177 43.7493 45.2223 42.9493 46.5236 42.352C47.825 41.7547 49.4356 41.4133 51.3556 41.328V35.152H55.7076V41.328C57.649 41.4133 59.2703 41.7227 60.5716 42.256C61.873 42.7893 62.9076 43.536 63.6756 44.496C64.465 45.4347 65.0196 46.576 65.3396 47.92C65.681 49.2427 65.8516 50.7467 65.8516 52.432V58H61.3076V52.496C61.3076 51.024 61.1903 49.84 60.9556 48.944C60.721 48.0267 60.369 47.312 59.8996 46.8C59.4516 46.288 58.8756 45.9253 58.1716 45.712C57.4676 45.4773 56.6463 45.3173 55.7076 45.232V52.56H51.3556V45.232C50.481 45.3173 49.6916 45.4667 48.9876 45.68C48.305 45.8933 47.7183 46.256 47.2276 46.768C46.737 47.2587 46.353 47.9627 46.0756 48.88C45.8196 49.776 45.6916 50.96 45.6916 52.432V58H41.1476V52.496Z" fill="white"/>
</svg>
