<svg width="80" height="80" viewBox="0 0 80 80" fill="none" xmlns="http://www.w3.org/2000/svg">
<mask id="mask0_3080_690" style="mask-type:alpha" maskUnits="userSpaceOnUse" x="0" y="0" width="80" height="80">
<rect width="80" height="80" fill="#D9D9D9"/>
</mask>
<g mask="url(#mask0_3080_690)">
<path d="M8.48527 32.8624C6.33709 32.8624 4.33248 33.2324 2.58743 33.8868C1.70662 34.2181 0.800961 33.4478 1.03842 32.5366C4.45397 19.5094 15.0568 9.12747 28.6362 5.35021C22.6141 11.4689 18.3592 22.3893 17.3375 35.4634C15.1065 33.8564 11.9947 32.8624 8.48527 32.8624ZM29.4756 32.8624C28.9731 32.8624 28.4843 32.89 27.9984 32.9287C27.8603 32.9397 27.725 32.9535 27.5897 32.9673C27.217 33.006 26.8497 33.0557 26.488 33.1164C26.3748 33.1358 26.2588 33.1523 26.1456 33.1717C25.6928 33.2572 25.251 33.3594 24.8203 33.4781C24.7319 33.503 24.6463 33.5334 24.558 33.5582C24.2128 33.6604 23.876 33.7736 23.5474 33.8978C23.4287 33.942 23.3099 33.989 23.1912 34.0359C22.8488 34.1767 22.5147 34.3258 22.1944 34.4887C22.142 34.5163 22.0867 34.5384 22.0343 34.566C21.725 34.7289 21.4268 34.8974 21.1397 35.0796C22.65 18.7667 29.6661 5.7064 38.0904 4V35.2839C35.8815 33.7791 32.858 32.8624 29.4756 32.8624ZM41.8428 35.2784V4.00276C50.2644 5.71744 57.2749 18.7722 58.7798 35.0796C58.4954 34.8974 58.1972 34.7289 57.8879 34.566C57.8438 34.5439 57.7968 34.5219 57.7499 34.4998C57.4241 34.3341 57.0817 34.1795 56.731 34.0359C56.6178 33.989 56.5018 33.9448 56.3859 33.9006C56.0545 33.7763 55.7149 33.6604 55.3642 33.5555C55.2786 33.5306 55.1958 33.5002 55.1102 33.4781C54.6795 33.3594 54.2377 33.2572 53.7848 33.1689C53.6744 33.1468 53.5612 33.133 53.4507 33.1137C53.089 33.0529 52.7218 33.0032 52.3463 32.9646C52.211 32.9508 52.0757 32.937 51.9376 32.9259C51.4544 32.8873 50.9629 32.8596 50.4632 32.8596C47.0807 32.8624 44.0545 33.7763 41.8428 35.2784ZM71.4563 32.8624C67.9385 32.8624 64.8212 33.8564 62.5874 35.4689C61.5658 22.3921 57.3081 11.4689 51.286 5.35021C64.8709 9.12747 75.4848 19.5067 78.9004 32.5366C79.1406 33.4478 78.2349 34.2181 77.3513 33.8868C75.609 33.2296 73.6044 32.8624 71.4563 32.8624Z" fill="#82848A"/>
<path d="M23 57.7245C23 67.5133 30.9135 75.4489 40.675 75.4489C50.4365 75.4489 58.3501 67.5133 58.3501 57.7245C58.3501 47.9331 50.4365 40 40.675 40C30.9135 39.9974 23 47.9331 23 57.7245Z" fill="#EC3342"/>
</g>
<path d="M31.2357 61.872C31.2357 60.72 31.3637 59.656 31.6197 58.68C31.8917 57.688 32.3237 56.816 32.9157 56.064C33.5077 55.312 34.2917 54.712 35.2677 54.264C36.2437 53.816 37.4517 53.56 38.8917 53.496V48.864H42.1557V53.496C43.6117 53.56 44.8277 53.792 45.8037 54.192C46.7797 54.592 47.5557 55.152 48.1317 55.872C48.7237 56.576 49.1397 57.432 49.3797 58.44C49.6357 59.432 49.7637 60.56 49.7637 61.824V66H46.3557V61.872C46.3557 60.768 46.2677 59.88 46.0917 59.208C45.9157 58.52 45.6517 57.984 45.2997 57.6C44.9637 57.216 44.5317 56.944 44.0037 56.784C43.4757 56.608 42.8597 56.488 42.1557 56.424V61.92H38.8917V56.424C38.2357 56.488 37.6437 56.6 37.1157 56.76C36.6037 56.92 36.1637 57.192 35.7957 57.576C35.4277 57.944 35.1397 58.472 34.9317 59.16C34.7397 59.832 34.6437 60.72 34.6437 61.824V66H31.2357V61.872Z" fill="white"/>
</svg>
