<svg width="170" height="70" viewBox="0 0 170 70" fill="none" xmlns="http://www.w3.org/2000/svg">
<path d="M32.1738 54.12H0.0137501V45L28.3338 1.8H42.2538V45H50.8938V54.12H42.2538V69H32.1738V54.12ZM32.1738 45V12.84H31.6938L10.5738 45H32.1738ZM85.0038 69.96C80.9078 69.96 77.1638 69.256 73.7718 67.848C70.3798 66.376 67.4358 64.2 64.9398 61.32C62.5078 58.44 60.5878 54.856 59.1797 50.568C57.8358 46.216 57.1638 41.16 57.1638 35.4C57.1638 29.64 57.8358 24.616 59.1797 20.328C60.5878 15.976 62.5078 12.36 64.9398 9.48C67.4358 6.6 70.3798 4.456 73.7718 3.048C77.1638 1.576 80.9078 0.839996 85.0038 0.839996C89.0998 0.839996 92.8438 1.576 96.2358 3.048C99.6278 4.456 102.54 6.6 104.972 9.48C107.468 12.36 109.388 15.976 110.732 20.328C112.14 24.616 112.844 29.64 112.844 35.4C112.844 41.16 112.14 46.216 110.732 50.568C109.388 54.856 107.468 58.44 104.972 61.32C102.54 64.2 99.6278 66.376 96.2358 67.848C92.8438 69.256 89.0998 69.96 85.0038 69.96ZM85.0038 60.84C87.3718 60.84 89.6438 60.36 91.8198 59.4C93.9958 58.376 95.8838 56.84 97.4838 54.792C99.0838 52.68 100.364 50.024 101.324 46.824C102.284 43.624 102.764 39.816 102.764 35.4C102.764 31.048 102.284 27.272 101.324 24.072C100.364 20.872 99.0838 18.248 97.4838 16.2C95.8838 14.088 93.9958 12.52 91.8198 11.496C89.6438 10.472 87.3718 9.96 85.0038 9.96C82.5718 9.96 80.2678 10.472 78.0918 11.496C75.9798 12.52 74.1238 14.088 72.5238 16.2C70.9238 18.248 69.6438 20.872 68.6838 24.072C67.7238 27.272 67.2438 31.048 67.2438 35.4C67.2438 39.816 67.7238 43.624 68.6838 46.824C69.6438 50.024 70.9238 52.68 72.5238 54.792C74.1238 56.84 75.9798 58.376 78.0918 59.4C80.2678 60.36 82.5718 60.84 85.0038 60.84ZM151.236 54.12H119.076V45L147.396 1.8H161.316V45H169.956V54.12H161.316V69H151.236V54.12ZM151.236 45V12.84H150.756L129.636 45H151.236Z" fill="#A0A4A8"/>
</svg>
