<svg width="22" height="22" viewBox="0 0 22 22" fill="none" xmlns="http://www.w3.org/2000/svg">
<path d="M16.3906 5.5625L14.0469 5.04688C13.7188 4.95312 13.3438 5.14062 13.2031 5.46875L12.125 8C11.9844 8.32812 12.0781 8.65625 12.3125 8.84375L13.5781 9.875C12.7812 11.5156 11.4688 12.8281 9.82812 13.625L8.79688 12.3594C8.60938 12.125 8.28125 12.0312 7.95312 12.1719L5.42188 13.25C5.09375 13.3906 4.90625 13.7656 5 14.0938L5.5625 16.4375C5.60938 16.7656 5.89062 17 6.26562 17C12.1719 17 17 12.2188 17 6.3125C17 5.9375 16.7656 5.65625 16.3906 5.5625ZM18.5 0.5H3.5C1.8125 0.5 0.5 1.85938 0.5 3.5V18.5C0.5 20.1875 1.8125 21.5 3.5 21.5H18.5C20.1406 21.5 21.5 20.1875 21.5 18.5V3.5C21.5 1.85938 20.1406 0.5 18.5 0.5ZM19.25 18.5C19.25 18.9219 18.875 19.25 18.5 19.25H3.5C3.07812 19.25 2.75 18.9219 2.75 18.5V3.5C2.75 3.125 3.07812 2.75 3.5 2.75H18.5C18.875 2.75 19.25 3.125 19.25 3.5V18.5Z" fill="white"/>
</svg>
